name Walk8.mot
datacolumns 19
datarows 15
range 2.69000000 2.76000000
endheader

                time	   L_ground_force_vx	   L_ground_force_vy	   L_ground_force_vz	   L_ground_force_px	   L_ground_force_py	   L_ground_force_pz	   R_ground_force_vx	   R_ground_force_vy	   R_ground_force_vz	   R_ground_force_px	   R_ground_force_py	   R_ground_force_pz	   L_ground_torque_x	   L_ground_torque_y	   L_ground_torque_z	   R_ground_torque_x	   R_ground_torque_y	   R_ground_torque_z	
          2.69000000	         -0.00000000	          0.00000000	         -0.00000000	         -0.00000000	          0.00000000	         -0.00000000	         11.96489384	         38.37162596	         10.26770918	          0.42667597	          0.00000000	          0.09799019	          0.00000000	          0.00000000	          0.00000000	          0.00000000	         -1.90473038	          0.00000000	
          2.69500000	         -0.00000000	          0.00000000	         -0.00000000	         -0.00000000	          0.00000000	         -0.00000000	          7.95952784	         22.73749889	          7.77983481	          0.34883521	          0.00000000	          0.08025936	          0.00000000	         -0.00000000	          0.00000000	          0.00000000	         -1.17943567	          0.00000000	
          2.70000000	         -0.00000000	         -0.00000000	         -0.00000000	         -0.00000000	          0.00000000	         -0.00000000	          4.76204736	         10.91694320	          5.56991363	          0.27147290	          0.00000000	          0.06257544	          0.00000000	         -0.00000000	          0.00000000	          0.00000000	         -0.62107828	          0.00000000	
          2.70500000	         -0.00000000	         -0.00000000	          0.00000000	         -0.00000000	          0.00000000	         -0.00000000	          2.33494470	          2.47325162	          3.71222116	          0.20039173	          0.00000000	          0.04628612	          0.00000000	         -0.00000000	          0.00000000	          0.00000000	         -0.21389472	          0.00000000	
          2.71000000	         -0.00000000	         -0.00000000	          0.00000000	         -0.00000000	          0.00000000	         -0.00000000	          0.59382489	         -3.13712852	          2.22732716	          0.13896019	          0.00000000	          0.03217943	          0.00000000	         -0.00000000	          0.00000000	          0.00000000	          0.06414070	          0.00000000	
          2.71500000	         -0.00000000	         -0.00000000	          0.00000000	          0.00000000	          0.00000000	         -0.00000000	         -0.56968588	         -6.48684769	          1.09893876	          0.08857527	          0.00000000	          0.02058808	          0.00000000	         -0.00000000	          0.00000000	          0.00000000	          0.23736667	          0.00000000	
          2.72000000	         -0.00000000	         -0.00000000	          0.00000000	          0.00000000	          0.00000000	         -0.00000000	         -1.27076754	         -8.12192648	          0.28841237	          0.04925916	          0.00000000	          0.01152650	          0.00000000	         -0.00000000	          0.00000000	          0.00000000	          0.32968030	          0.00000000	
          2.72500000	         -0.00000000	         -0.00000000	          0.00000000	          0.00000000	          0.00000000	         -0.00000000	         -1.61985527	         -8.52812465	         -0.25417244	          0.02015069	          0.00000000	          0.00480388	          0.00000000	         -0.00000000	          0.00000000	          0.00000000	          0.36280551	          0.00000000	
          2.73000000	         -0.00000000	         -0.00000000	          0.00000000	          0.00000000	          0.00000000	          0.00000000	         -1.71560751	         -8.11414013	         -0.58201960	         -0.00010968	          0.00000000	          0.00011286	          0.00000000	         -0.00000000	          0.00000000	          0.00000000	          0.35535454	          0.00000000	
          2.73500000	         -0.00000000	         -0.00000000	          0.00000000	          0.00000000	          0.00000000	          0.00000000	         -1.64132775	         -7.20692950	         -0.74623092	         -0.01309359	          0.00000000	         -0.00290432	          0.00000000	         -0.00000000	          0.00000000	          0.00000000	          0.32247213	          0.00000000	
          2.74000000	         -0.00000000	         -0.00000000	          0.00000000	          0.00000000	          0.00000000	          0.00000000	         -1.46388441	         -6.05517192	         -0.79251861	         -0.02038437	          0.00000000	         -0.00460949	          0.00000000	         -0.00000000	          0.00000000	          0.00000000	          0.27588163	          0.00000000	
          2.74500000	         -0.00000000	         -0.00000000	          0.00000000	          0.00000000	          0.00000000	          0.00000000	         -1.23431787	         -4.83768121	         -0.75952337	         -0.02344765	          0.00000000	         -0.00533842	          0.00000000	         -0.00000000	          0.00000000	          0.00000000	          0.22418515	          0.00000000	
          2.75000000	         -0.00000000	         -0.00000000	          0.00000000	          0.00000000	          0.00000000	          0.00000000	         -0.98948168	         -3.67432591	         -0.67829505	         -0.02355765	          0.00000000	         -0.00538367	          0.00000000	         -0.00000000	          0.00000000	          0.00000000	          0.17330286	          0.00000000	
          2.75500000	         -0.00000000	         -0.00000000	          0.00000000	          0.00000000	          0.00000000	          0.00000000	         -0.75421693	         -2.63769394	         -0.57255996	         -0.02176506	          0.00000000	         -0.00498690	          0.00000000	         -0.00000000	          0.00000000	          0.00000000	          0.12696687	          0.00000000	
          2.76000000	          0.00000000	         -0.00000000	          0.00000000	          0.00000000	          0.00000000	          0.00000000	         -0.54369677	         -1.76431224	         -0.45947153	         -0.01889416	          0.00000000	         -0.00433806	          0.00000000	         -0.00000000	          0.00000000	          0.00000000	          0.08721095	          0.00000000	
